HIERARCHY
ROOT RootJoint
{
    OFFSET   0.000000   0.000000   0.000000
    CHANNELS 6 Xposition Yposition Zposition Xrotation Yrotation Zrotation
    JOINT pelvis_lowerback
    {
        OFFSET   0.000000   0.093605   0.000000
        CHANNELS 3 Xrotation Yrotation Zrotation
        JOINT lowerback_torso
        {
            OFFSET   0.000000   0.100000   0.000000
            CHANNELS 3 Xrotation Yrotation Zrotation
            JOINT torso_head
            {
                OFFSET   0.000000   0.282350   0.000000
                CHANNELS 3 Xrotation Yrotation Zrotation
                End Site
                {
                    OFFSET   0.000000   0.192650   0.000000
                }
            }
            JOINT rTorso_Clavicle
            {
                OFFSET  -0.001000   0.157500   0.000000
                CHANNELS 3 Xrotation Yrotation Zrotation
                JOINT rShoulder
                {
                    OFFSET  -0.117647   0.000000   0.000000
                    CHANNELS 3 Xrotation Yrotation Zrotation
                    JOINT rElbow
                    {
                        OFFSET  -0.245000   0.000000   0.000000
                        CHANNELS 3 Xrotation Yrotation Zrotation
                        JOINT rWrist
                        {
                            OFFSET  -0.240000   0.000000   0.000000
                            CHANNELS 3 Xrotation Yrotation Zrotation
                            End Site
                            {
                                OFFSET  -0.116353  -0.002500   0.000000
                            }
                        }
                    }
                }
            }
            JOINT lTorso_Clavicle
            {
                OFFSET   0.001000   0.157500   0.000000
                CHANNELS 3 Xrotation Yrotation Zrotation
                JOINT lShoulder
                {
                    OFFSET   0.117647   0.000000   0.000000
                    CHANNELS 3 Xrotation Yrotation Zrotation
                    JOINT lElbow
                    {
                        OFFSET   0.245000   0.000000   0.000000
                        CHANNELS 3 Xrotation Yrotation Zrotation
                        JOINT lWrist
                        {
                            OFFSET   0.240000   0.000000   0.000000
                            CHANNELS 3 Xrotation Yrotation Zrotation
                            End Site
                            {
                                OFFSET   0.116353  -0.002500   0.000000
                            }
                        }
                    }
                }
            }
        }
    }
    JOINT rHip
    {
        OFFSET  -0.100000  -0.051395   0.000000
        CHANNELS 3 Xrotation Yrotation Zrotation
        JOINT rKnee
        {
            OFFSET   0.000000  -0.410000   0.000000
            CHANNELS 3 Xrotation Yrotation Zrotation
            JOINT rAnkle
            {
                OFFSET   0.000000  -0.390000   0.000000
                CHANNELS 3 Xrotation Yrotation Zrotation
                JOINT rToeJoint
                {
                    OFFSET   0.000000  -0.050000   0.130000
                    CHANNELS 3 Xrotation Yrotation Zrotation
                    End Site
                    {
                        OFFSET  -0.010000   0.002000   0.060000
                    }
                }
            }
        }
    }
    JOINT lHip
    {
        OFFSET   0.100000  -0.051395   0.000000
        CHANNELS 3 Xrotation Yrotation Zrotation
        JOINT lKnee
        {
            OFFSET   0.000000  -0.410000   0.000000
            CHANNELS 3 Xrotation Yrotation Zrotation
            JOINT lAnkle
            {
                OFFSET   0.000000  -0.390000   0.000000
                CHANNELS 3 Xrotation Yrotation Zrotation
                JOINT lToeJoint
                {
                    OFFSET   0.000000  -0.050000   0.130000
                    CHANNELS 3 Xrotation Yrotation Zrotation
                    End Site
                    {
                        OFFSET   0.010000   0.002000   0.060000
                    }
                }
            }
        }
    }
}
MOTION
Frames: 10
Frame Time:   0.008333
 -2.346228   0.890365   4.781767  -2.250208  -0.141421   2.348649   8.084365  -3.638652  -2.917212   2.693815  -4.311150   1.789991   0.383170   3.020160   0.101777   4.305930  -5.641443  11.550132  11.898492   7.076417  47.288224  -0.000039  10.571832  -0.000117   7.668710   2.532457   5.048383  -1.598558  -1.333437  -6.835686  -4.185612 -15.898679 -36.681635  -0.005175 -29.641681  -0.000438   7.944427  -6.070400   0.499076 -25.591773   8.696279  -5.347283  22.612535  -0.010198  -0.024987  -8.336718   0.491059   4.370037  -2.547726   0.000036   0.002145  11.471861  -1.809522  -3.828024  11.888234  -0.000050  -0.000173 -18.595145  -1.763382   2.750157  -4.422522  -0.002695  -0.000119
 -2.347151   0.889402   4.790768  -2.365462   0.154398   2.297483   8.035364  -3.712472  -2.848295   2.837851  -4.351529   1.881213   0.408879   3.010730   0.016339   4.392856  -5.719911  11.644551  12.023337   6.946271  47.145070  -0.000050  10.494810  -0.000015   7.728432   2.577610   5.101887  -1.571260  -1.416652  -6.864822  -4.139708 -16.023117 -36.720074  -0.003974 -30.078138  -0.000030   8.047385  -6.075040   0.552304 -25.475042   8.672679  -5.335917  21.680785  -0.007894  -0.022449  -8.092580   0.517825   4.335806  -2.392687   0.000028   0.002210  12.056870  -1.887325  -3.605113  12.126372  -0.000134   0.000384 -18.633813  -1.951845   2.383000  -5.341183  -0.004272  -0.000358
 -2.348136   0.888514   4.800018  -2.484694   0.468829   2.239155   7.955362  -3.778145  -2.768522   2.986727  -4.390934   1.975542   0.436312   3.001016  -0.058449   4.495893  -5.811399  11.727149  12.157407   6.808799  47.006318  -0.000057  10.413668   0.000076   7.792088   2.587165   5.160166  -1.517881  -1.482049  -6.924028  -4.079553 -16.132295 -36.787667  -0.002921 -30.482250   0.000129   8.148852  -6.079183   0.523978 -25.292767   8.632389  -5.285272  20.927818  -0.005826  -0.020096  -7.855849   0.542021   4.303836  -2.225652  -0.000054   0.002296  12.625040  -1.970129  -3.362996  12.421403  -0.000226   0.000975 -18.596179  -2.144320   2.052379  -6.454472  -0.005632  -0.000674
 -2.349177   0.887623   4.809403  -2.576126   0.780899   2.185939   7.849275  -3.832746  -2.691704   3.115185  -4.424296   2.062498   0.457705   2.992304  -0.124931   4.604394  -5.908447  11.799173  12.291947   6.671288  46.876200  -0.000055  10.333399   0.000149   7.855395   2.572469   5.223160  -1.451159  -1.529776  -6.993997  -4.012059 -16.225814 -36.864200  -0.002095 -30.855816   0.000118   8.245452  -6.073205   0.450858 -25.079719   8.587230  -5.209439  20.264685  -0.004029  -0.017984  -7.632987   0.565068   4.274213  -2.069578  -0.000169   0.002317  13.160120  -2.050200  -3.119231  12.732592  -0.000312   0.001480 -18.506453  -2.335127   1.756759  -7.682420  -0.006595  -0.001015
 -2.350265   0.886671   4.818855  -2.631858   1.084789   2.142040   7.725689  -3.877011  -2.622627   3.221054  -4.450471   2.140130   0.473253   2.984357  -0.185721   4.711140  -6.004535  11.861679  12.421620   6.538416  46.753717  -0.000044  10.256512   0.000207   7.916972   2.546989   5.286452  -1.379392  -1.564643  -7.064032  -3.942182 -16.306842 -36.940319  -0.001477 -31.201806   0.000026   8.337433  -6.056572   0.359798 -24.852496   8.539831  -5.117030  19.665022  -0.002500  -0.016088  -7.424220   0.586839   4.246677  -1.925737  -0.000292   0.002277  13.660265  -2.127058  -2.880193  13.042951  -0.000388   0.001867 -18.386951  -2.522932   1.490018  -8.970530  -0.007166  -0.001340
 -2.351430   0.885716   4.828390  -2.657648   1.375457   2.119439   7.591187  -3.910959  -2.576354   3.309139  -4.468986   2.205069   0.485087   2.977060  -0.242284   4.813086  -6.097002  11.924071  12.543918   6.412640  46.641085  -0.000032  10.183776   0.000254   7.976563   2.516442   5.346787  -1.305602  -1.588370  -7.132484  -3.871346 -16.375914 -37.011291  -0.001016 -31.521454  -0.000108   8.425451  -6.026633   0.266073 -24.606012   8.491584  -5.018220  19.117300  -0.001193  -0.014363  -7.228853   0.607239   4.220927  -1.792681  -0.000415   0.002188  14.124207  -2.189931  -2.667018  13.367137  -0.000436   0.002212 -18.229086  -2.728351   1.389995  -7.894454  -0.005585  -0.000967
 -2.352655   0.884631   4.837921  -2.638087   1.670035   2.097637   7.446744  -3.940958  -2.528218   3.376266  -4.484197   2.264336   0.492852   2.970129  -0.295539   4.908430  -6.184216  11.974398  12.658123   6.294493  46.534379  -0.000013  10.116407   0.000294   8.033095   2.490429   5.406359  -1.234867  -1.607185  -7.192316  -3.803834 -16.439080 -37.077550  -0.000690 -31.819766  -0.000234   8.509387  -5.994857   0.172199 -24.367163   8.442133  -4.904615  18.616002  -0.000133  -0.012884  -7.046256   0.626302   4.197021  -1.671219  -0.000524   0.002084  14.558484  -2.253271  -2.442861  13.660261  -0.000480   0.002426 -18.094395  -2.910546   1.228244  -9.618502  -0.005475  -0.001455
 -2.354174   0.884298   4.847885  -2.698244   1.983259   2.052595   7.295244  -4.014864  -2.493646   3.519230  -4.510057   2.378752   0.532442   2.888603  -0.371033   5.020065  -6.219384  12.080109  12.742721   6.179103  46.374139  -0.000009  10.009759   0.000382   8.106305   2.457366   5.473105  -1.153970  -1.618627  -7.311038  -3.583338 -16.395514 -37.230294  -0.000188 -31.983714  -0.000163   8.621524  -6.062299   0.211542 -24.203529   8.249361  -4.642983  19.006152  -0.001223  -0.009514  -6.547400   0.568741   3.945794  -1.452973  -0.000596   0.001790  14.920779  -2.351611  -2.180645  14.225078  -0.000712   0.003082 -17.541177  -3.036850   1.158065 -12.190409  -0.004262  -0.002337
 -2.355935   0.884331   4.858169  -2.760623   2.318805   1.964928   7.120822  -4.086859  -2.423470   3.665578  -4.530995   2.499047   0.568730   2.807036  -0.435454   5.137635  -6.266747  12.173605  12.830883   6.062740  46.227724  -0.000002   9.906555   0.000448   8.178315   2.410806   5.556905  -1.025803  -1.596681  -7.462242  -3.340316 -16.328883 -37.412635   0.000212 -32.120083  -0.000153   8.729983  -6.062094   0.142092 -23.983281   8.041533  -4.273077  19.540777  -0.002804  -0.006253  -6.068081   0.511986   3.712535  -1.210862  -0.000870   0.001655  15.259385  -2.453554  -1.848580  14.907188  -0.001060   0.003901 -16.710955  -3.155969   1.087735 -15.246612  -0.003284  -0.003422
 -2.357891   0.884204   4.868518  -2.783638   2.669481   1.817777   6.932970  -4.145095  -2.310060   3.789903  -4.540183   2.629156   0.596298   2.730363  -0.489565   5.256604  -6.320340  12.231897  12.920448   5.946727  46.087425   0.000039   9.809209   0.000510   8.246610   2.367586   5.658568  -0.884287  -1.557080  -7.602016  -3.097876 -16.256630 -37.596535   0.000475 -32.243834  -0.000183   8.832795  -6.037303   0.005477 -23.762422   7.835039  -3.810312  20.093524  -0.004248  -0.003307  -5.618696   0.458753   3.496661  -0.987659  -0.001158   0.001654  15.550829  -2.592044  -1.422750  15.615389  -0.001592   0.004425 -15.541406  -3.295896   0.978741 -19.913837  -0.004443  -0.003062
